HIERARCHY
ROOT Hips
{
	OFFSET 0.000000 35.082581 0.000000
	CHANNELS 6 Xposition Yposition Zposition Xrotation Yrotation Zrotation 
	JOINT Spine
	{
		OFFSET 0.000000 6.876099 0.125700
		CHANNELS 3 Xrotation Yrotation Zrotation
		JOINT Spine1
		{
			OFFSET 0.000000 5.730043 0.104720
			CHANNELS 3 Xrotation Yrotation Zrotation
			JOINT Spine1_split
			{
				OFFSET 0.000000 5.730043 0.104720
				CHANNELS 3 Xrotation Yrotation Zrotation
				JOINT Spine2
				{
					OFFSET 0.000000 5.730043 0.104720
					CHANNELS 3 Xrotation Yrotation Zrotation
					JOINT Neck
					{
						OFFSET 0.000000 10.314075 0.188496
						CHANNELS 3 Xrotation Yrotation Zrotation
						JOINT Head
						{
							OFFSET 0.000000 7.643700 -2.377400
							CHANNELS 3 Xrotation Yrotation Zrotation
							JOINT HeadTop_End
							{
								OFFSET 0.000000 43.788605 -13.619600
								CHANNELS 3 Xrotation Yrotation Zrotation
								End Site
								{
									OFFSET 0.000000 0.000000 0.000000
								}
							}
						}
					}
					JOINT LeftShoulder
					{
						OFFSET 2.196100 4.412489 0.087492
						CHANNELS 3 Xrotation Yrotation Zrotation
						JOINT LeftShoulder_split
						{
							OFFSET 2.196100 4.412489 0.087492
							CHANNELS 3 Xrotation Yrotation Zrotation
							JOINT LeftArm
							{
								OFFSET 8.771219 -2.981674 -0.026999
								CHANNELS 3 Xrotation Yrotation Zrotation
								JOINT LeftForeArm
								{
									OFFSET 8.512804 0.000000 -0.000000
									CHANNELS 3 Xrotation Yrotation Zrotation
									JOINT LeftHand
									{
										OFFSET 18.484802 0.000000 -0.000000
										CHANNELS 3 Xrotation Yrotation Zrotation
										JOINT LeftHandThumb1
										{
											OFFSET 2.499420 -1.158070 2.653252
											CHANNELS 3 Xrotation Yrotation Zrotation
											JOINT LeftHandThumb2
											{
												OFFSET 2.370079 -1.368366 1.368366
												CHANNELS 3 Xrotation Yrotation Zrotation
												JOINT LeftHandThumb3
												{
													OFFSET 2.676727 -1.545410 1.545409
													CHANNELS 3 Xrotation Yrotation Zrotation
													JOINT LeftHandThumb4
													{
														OFFSET 1.692226 -0.977005 0.977007
														CHANNELS 3 Xrotation Yrotation Zrotation
														End Site
														{
															OFFSET 0.000000 0.000000 0.000000
														}
													}
												}
											}
										}
										JOINT LeftHandIndex1
										{
											OFFSET 7.924831 -0.457527 2.345128
											CHANNELS 3 Xrotation Yrotation Zrotation
											JOINT LeftHandIndex2
											{
												OFFSET 3.643303 0.000000 0.000000
												CHANNELS 3 Xrotation Yrotation Zrotation
												JOINT LeftHandIndex3
												{
													OFFSET 3.810799 0.000000 0.000000
													CHANNELS 3 Xrotation Yrotation Zrotation
													JOINT LeftHandIndex4
													{
														OFFSET 2.403702 0.000000 0.000000
														CHANNELS 3 Xrotation Yrotation Zrotation
														End Site
														{
															OFFSET 0.000000 0.000000 0.000000
														}
													}
												}
											}
										}
										JOINT LeftHandMiddle1
										{
											OFFSET 8.563995 0.000000 -0.000000
											CHANNELS 3 Xrotation Yrotation Zrotation
											JOINT LeftHandMiddle2
											{
												OFFSET 3.861618 0.000000 0.000000
												CHANNELS 3 Xrotation Yrotation Zrotation
												JOINT LeftHandMiddle3
												{
													OFFSET 3.701603 0.000000 0.000000
													CHANNELS 3 Xrotation Yrotation Zrotation
													JOINT LeftHandMiddle4
													{
														OFFSET 2.322544 0.000000 0.000000
														CHANNELS 3 Xrotation Yrotation Zrotation
														End Site
														{
															OFFSET 0.000000 0.000000 0.000000
														}
													}
												}
											}
										}
										JOINT LeftHandRing1
										{
											OFFSET 8.426460 -0.424637 -3.286992
											CHANNELS 3 Xrotation Yrotation Zrotation
											JOINT LeftHandRing2
											{
												OFFSET 3.126408 0.000000 0.000000
												CHANNELS 3 Xrotation Yrotation Zrotation
												JOINT LeftHandRing3
												{
													OFFSET 3.085026 0.000000 0.000000
													CHANNELS 3 Xrotation Yrotation Zrotation
													JOINT LeftHandRing4
													{
														OFFSET 1.644005 0.000000 0.000000
														CHANNELS 3 Xrotation Yrotation Zrotation
														End Site
														{
															OFFSET 0.000000 0.000000 0.000000
														}
													}
												}
											}
										}
									}
								}
							}
						}
					}
					JOINT RightShoulder
					{
						OFFSET -2.196100 4.412496 0.070690
						CHANNELS 3 Xrotation Yrotation Zrotation
						JOINT RightShoulder_split
						{
							OFFSET -2.196100 4.412496 0.070690
							CHANNELS 3 Xrotation Yrotation Zrotation
							JOINT RightArm
							{
								OFFSET -8.771282 -2.981682 -0.094208
								CHANNELS 3 Xrotation Yrotation Zrotation
								JOINT RightForeArm
								{
									OFFSET -8.494598 0.000000 0.000000
									CHANNELS 3 Xrotation Yrotation Zrotation
									JOINT RightHand
									{
										OFFSET -18.483803 0.000000 0.000001
										CHANNELS 3 Xrotation Yrotation Zrotation
										JOINT RightHandThumb1
										{
											OFFSET -2.527351 -1.008072 2.575253
											CHANNELS 3 Xrotation Yrotation Zrotation
											JOINT RightHandThumb2
											{
												OFFSET -2.321518 -1.340328 1.340329
												CHANNELS 3 Xrotation Yrotation Zrotation
												JOINT RightHandThumb3
												{
													OFFSET -2.657753 -1.534454 1.534455
													CHANNELS 3 Xrotation Yrotation Zrotation
													JOINT RightHandThumb4
													{
														OFFSET -1.807510 -1.043568 1.043567
														CHANNELS 3 Xrotation Yrotation Zrotation
														End Site
														{
															OFFSET 0.000000 0.000000 0.000000
														}
													}
												}
											}
										}
										JOINT RightHandIndex1
										{
											OFFSET -8.811420 0.015533 2.887987
											CHANNELS 3 Xrotation Yrotation Zrotation
											JOINT RightHandIndex2
											{
												OFFSET -3.537502 0.000000 0.000000
												CHANNELS 3 Xrotation Yrotation Zrotation
												JOINT RightHandIndex3
												{
													OFFSET -3.356201 0.000000 0.000000
													CHANNELS 3 Xrotation Yrotation Zrotation
													JOINT RightHandIndex4
													{
														OFFSET -1.933098 0.000000 0.000000
														CHANNELS 3 Xrotation Yrotation Zrotation
														End Site
														{
															OFFSET 0.000000 0.000000 0.000000
														}
													}
												}
											}
										}
										JOINT RightHandMiddle1
										{
											OFFSET -8.178135 0.000000 0.000000
											CHANNELS 3 Xrotation Yrotation Zrotation
											JOINT RightHandMiddle2
											{
												OFFSET -3.901302 0.000000 0.000000
												CHANNELS 3 Xrotation Yrotation Zrotation
												JOINT RightHandMiddle3
												{
													OFFSET -3.909599 0.000000 0.000000
													CHANNELS 3 Xrotation Yrotation Zrotation
													JOINT RightHandMiddle4
													{
														OFFSET -2.376003 0.000000 0.000000
														CHANNELS 3 Xrotation Yrotation Zrotation
														End Site
														{
															OFFSET 0.000000 0.000000 0.000000
														}
													}
												}
											}
										}
										JOINT RightHandRing1
										{
											OFFSET -7.559013 0.014137 -2.865403
											CHANNELS 3 Xrotation Yrotation Zrotation
											JOINT RightHandRing2
											{
												OFFSET -3.449306 0.000000 0.000000
												CHANNELS 3 Xrotation Yrotation Zrotation
												JOINT RightHandRing3
												{
													OFFSET -3.362106 0.000000 0.000000
													CHANNELS 3 Xrotation Yrotation Zrotation
													JOINT RightHandRing4
													{
														OFFSET -2.076401 0.000000 0.000000
														CHANNELS 3 Xrotation Yrotation Zrotation
														End Site
														{
															OFFSET 0.000000 0.000000 0.000000
														}
													}
												}
											}
										}
									}
								}
							}
						}
					}
				}
			}
		}
	}
	JOINT LeftUpLeg
	{
		OFFSET 10.205400 -3.823500 0.155100
		CHANNELS 3 Xrotation Yrotation Zrotation
		JOINT LeftLeg
		{
			OFFSET 0.708757 -12.982077 0.567790
			CHANNELS 3 Xrotation Yrotation Zrotation
			JOINT LeftFoot
			{
				OFFSET -0.708756 -10.717838 -2.184338
				CHANNELS 3 Xrotation Yrotation Zrotation
				JOINT LeftToeBase
				{
					OFFSET 0.108149 -7.191104 7.560241
					CHANNELS 3 Xrotation Yrotation Zrotation
					JOINT LeftToe_End
					{
						OFFSET 0.070230 0.081724 4.490308
						CHANNELS 3 Xrotation Yrotation Zrotation
						End Site
						{
							OFFSET 0.000000 0.000000 0.000000
						}
					}
				}
			}
		}
	}
	JOINT RightUpLeg
	{
		OFFSET -10.205400 -3.823500 0.005500
		CHANNELS 3 Xrotation Yrotation Zrotation
		JOINT RightLeg
		{
			OFFSET -0.708756 -12.982134 0.610632
			CHANNELS 3 Xrotation Yrotation Zrotation
			JOINT RightFoot
			{
				OFFSET 0.708754 -10.717769 -1.945823
				CHANNELS 3 Xrotation Yrotation Zrotation
				JOINT RightToeBase
				{
					OFFSET -0.108140 -7.191069 7.372968
					CHANNELS 3 Xrotation Yrotation Zrotation
					JOINT RightToe_End
					{
						OFFSET -0.070227 0.081735 4.479403
						CHANNELS 3 Xrotation Yrotation Zrotation
						End Site
						{
							OFFSET 0.000000 0.000000 0.000000
						}
					}
				}
			}
		}
	}
}
MOTION
Frames: 5
Frame Time: 0.016667
0.028453 30.405483 -0.577606 -5.650120 -42.237822 -2.641481 5.900623 0.330719 -0.074189 11.805242 0.991265 -0.356036 0.000000 0.000000 0.000000 11.805240 0.991254 -0.356032 5.454854 -28.041996 -1.570756 -9.679872 -42.734557 2.179727 -0.000001 -0.000001 -0.000001 0.953419 -3.294063 -6.337589 0.000000 0.000000 0.000000 -7.803587 10.695479 -60.595710 -1.858031 -56.426372 -5.060436 4.516202 -4.170933 22.267588 11.334896 9.730344 -4.479180 3.334375 8.219296 1.772105 -0.000009 0.000004 -0.000011 -0.000002 -0.000001 -0.000001 2.657339 -3.651128 -37.231491 -2.225261 -2.598644 -50.721965 0.000004 -0.000001 0.000002 -0.000002 0.000004 0.000001 0.107947 6.609302 -47.483895 -2.786388 -4.412141 -56.251252 0.000001 0.000006 -0.000002 0.000001 0.000000 0.000001 -2.805084 11.224167 -62.315402 -2.190486 -4.064438 -66.809277 0.000017 0.000017 -0.000006 0.000001 0.000003 -0.000003 1.781031 9.143876 7.041880 0.000000 0.000000 0.000000 5.733463 -24.152587 68.587646 -7.143961 60.700260 7.121735 7.495355 6.265633 -16.551775 2.659616 -9.639239 12.705358 9.977293 -18.153803 0.046831 -0.000006 0.000004 0.000003 0.000000 -0.000002 -0.000002 3.448090 -2.832136 46.578134 -2.544534 2.250437 60.768890 0.000004 0.000001 -0.000000 -0.000003 -0.000000 0.000001 -1.797300 -0.803618 42.426895 -4.426253 4.278484 82.714568 0.000012 -0.000002 0.000013 0.000001 0.000001 -0.000001 -4.363419 -0.803132 50.285379 -4.892167 5.732351 89.685985 -0.000009 0.000011 -0.000003 -0.000000 -0.000000 0.000003 -37.076558 -0.116188 16.583440 40.063086 -13.795629 2.051375 -1.167676 1.138160 -15.875651 -2.715905 -3.120866 0.659111 0.000000 -0.000002 -0.000000 0.339933 -12.992054 -22.931694 40.378740 21.436755 -4.704693 -40.160365 -4.729461 7.620987 -1.576635 -1.962107 2.928812 0.000000 -0.000002 -0.000000 
0.038412 30.472992 -0.568587 -5.736552 -44.151702 -2.779903 5.946833 0.066124 -0.029660 11.895484 0.464791 -0.236212 0.000000 0.000000 0.000000 11.895475 0.464814 -0.236216 5.195392 -27.982380 -1.762657 -9.294774 -43.262814 2.943801 -0.000000 0.000001 0.000003 0.886155 -3.734549 -6.258018 0.000000 0.000000 0.000000 -7.277729 11.319177 -60.862334 -1.912515 -56.844092 -5.070168 4.598246 -4.482949 22.325462 11.166506 9.800948 -4.305344 3.299754 8.317258 1.736558 -0.000009 0.000004 -0.000011 -0.000001 0.000003 -0.000002 2.430025 -3.828148 -36.215548 -2.114165 -2.506282 -49.528434 0.000003 0.000001 0.000004 0.000001 0.000001 -0.000001 0.215158 6.756697 -46.504511 -2.677646 -4.338581 -55.049983 0.000005 0.000004 -0.000004 -0.000002 0.000001 0.000001 -2.571717 11.355784 -61.525818 -2.125247 -4.036829 -65.648377 0.000014 0.000011 -0.000006 -0.000000 0.000000 0.000001 1.849888 8.523528 7.171777 0.000000 0.000000 0.000000 5.962394 -24.111205 68.527001 -7.077249 61.206343 7.218155 7.457466 6.199107 -16.983243 2.643656 -9.750511 12.704175 10.045734 -18.113368 0.095470 -0.000007 0.000006 0.000002 0.000001 0.000003 -0.000000 3.693293 -2.556999 47.479893 -2.589238 2.274960 61.275403 0.000001 0.000001 0.000001 0.000000 -0.000001 0.000002 -1.828322 -0.767063 43.027781 -4.489838 4.286458 83.433616 0.000015 -0.000001 0.000012 0.000000 0.000002 -0.000001 -4.453559 -0.817809 50.903204 -4.955560 5.732772 90.416999 -0.000008 0.000011 -0.000003 0.000002 -0.000000 0.000001 -35.835182 0.219105 17.532114 40.170364 -12.737374 1.829101 -2.220446 1.370094 -16.162034 -2.692491 -3.093350 0.643716 0.000001 0.000001 -0.000000 -1.355915 -12.529868 -23.279154 41.166657 21.943584 -5.148118 -39.466155 -4.691117 7.905914 -1.482150 -1.713852 2.855575 0.000000 -0.000002 -0.000000 
0.046826 30.538265 -0.559895 -5.860279 -46.075264 -2.930574 5.994393 -0.200023 0.013289 11.989271 -0.070028 -0.121169 0.000000 0.000000 0.000000 11.989276 -0.070035 -0.121166 4.858836 -27.854881 -2.018474 -8.864682 -43.760267 3.691629 -0.000001 0.000001 0.000001 0.810232 -4.308833 -6.381070 0.000000 0.000000 0.000000 -6.676087 12.150740 -60.876725 -2.277387 -57.498670 -5.268906 4.466207 -4.693829 22.282247 10.967482 9.825530 -4.124747 3.258299 8.415887 1.703281 -0.000007 0.000006 -0.000018 -0.000000 0.000000 0.000003 2.194164 -4.002799 -35.091121 -1.993695 -2.401468 -48.208937 0.000005 -0.000000 0.000005 -0.000001 0.000004 -0.000000 0.327769 6.910724 -45.419761 -2.561334 -4.255985 -53.740779 -0.000001 0.000010 -0.000005 -0.000000 0.000004 0.000004 -2.325170 11.481183 -60.605477 -2.055392 -4.005511 -64.391253 0.000014 0.000011 -0.000009 0.000002 -0.000002 0.000001 1.951318 7.799980 7.121217 0.000000 0.000000 0.000000 6.182285 -23.943583 68.623846 -6.650502 61.549198 7.002524 7.654146 6.217758 -17.779952 2.794236 -9.711137 12.808135 10.023108 -18.127597 0.049081 -0.000009 0.000005 0.000006 -0.000000 0.000000 -0.000002 3.955475 -2.272758 48.348027 -2.630121 2.296965 61.736912 0.000002 0.000003 0.000000 0.000001 0.000001 -0.000001 -1.858060 -0.736050 43.602900 -4.552181 4.293549 84.138764 0.000011 -0.000001 0.000010 0.000002 -0.000000 -0.000000 -4.541474 -0.832918 51.507498 -5.016374 5.732371 91.119751 -0.000014 0.000014 -0.000002 0.000003 -0.000000 0.000000 -34.512693 0.617062 18.436243 40.200243 -11.672167 1.594977 -3.239592 1.607508 -16.475523 -2.671794 -3.066284 0.628139 0.000000 -0.000002 -0.000000 -3.000795 -12.029911 -23.556385 41.952507 22.330841 -5.617172 -38.765777 -4.666572 8.224348 -1.356088 -1.475308 2.774753 0.000000 -0.000003 0.000000 
0.055871 30.598572 -0.548453 -6.012900 -48.037950 -3.102317 6.034987 -0.484998 0.060706 12.069943 -0.646995 0.003702 0.000000 0.000000 0.000000 12.069949 -0.647015 0.003704 4.521428 -27.652193 -2.326646 -8.508132 -44.111435 4.370738 0.000000 -0.000000 -0.000003 0.756123 -4.664596 -6.306374 0.000000 0.000000 0.000000 -6.104456 12.854888 -61.074882 -2.488512 -57.874836 -5.355604 4.470213 -4.729137 21.933226 10.762677 9.805484 -3.951546 3.232072 8.534449 1.656963 -0.000005 0.000004 -0.000006 -0.000001 0.000003 0.000001 1.952081 -4.165051 -33.893431 -1.868547 -2.287419 -46.810770 0.000005 0.000002 0.000005 -0.000002 0.000004 0.000001 0.445420 7.069489 -44.252454 -2.441595 -4.166777 -52.371852 0.000008 0.000011 -0.000008 0.000002 -0.000001 0.000000 -2.065102 11.603921 -59.582903 -1.981977 -3.970587 -63.058526 0.000013 0.000017 -0.000007 0.000001 0.000000 0.000001 2.018786 7.202336 7.250138 0.000000 0.000000 0.000000 6.408702 -23.946223 68.399857 -6.276807 62.142420 6.935117 7.705299 6.072070 -18.489235 3.013038 -9.639039 12.943720 9.983763 -18.171740 -0.016014 -0.000005 0.000010 0.000003 0.000004 -0.000001 -0.000004 4.245900 -1.998509 49.180432 -2.670616 2.318254 62.191215 -0.000000 0.000000 -0.000001 0.000000 0.000001 -0.000003 -1.884919 -0.716088 44.128817 -4.613422 4.299705 84.829283 0.000012 -0.000006 0.000011 0.000001 0.000002 -0.000001 -4.614518 -0.847621 52.003735 -5.073318 5.731354 91.776180 -0.000012 0.000011 -0.000000 0.000000 0.000001 0.000002 -33.111572 1.031892 19.293510 40.203887 -10.546926 1.368343 -4.258628 1.860407 -16.847684 -2.653159 -3.037884 0.611140 0.000000 -0.000002 -0.000000 -4.658608 -11.507604 -23.793287 42.746288 22.711989 -6.095540 -38.022782 -4.650312 8.575900 -1.294084 -1.302454 2.708848 0.000000 -0.000002 -0.000000 
0.064429 30.652992 -0.536003 -6.115951 -49.912246 -3.224132 6.064630 -0.714372 0.091910 12.129426 -1.118517 0.088670 0.000000 0.000000 0.000000 12.129432 -1.118540 0.088677 4.097777 -27.486787 -2.682835 -7.896984 -44.635034 5.189479 -0.000001 0.000000 -0.000000 0.680386 -5.223118 -6.405314 0.000000 0.000000 0.000000 -5.606945 13.591773 -61.004798 -2.951079 -58.492073 -5.571315 4.296764 -4.406506 22.079070 10.551409 9.759155 -3.787380 3.214277 8.658598 1.605023 -0.000012 0.000003 -0.000015 -0.000003 -0.000003 0.000003 1.707582 -4.311737 -32.615868 -1.740292 -2.164369 -45.342658 0.000003 -0.000002 0.000005 0.000001 0.000002 -0.000001 0.564801 7.231721 -42.998732 -2.318220 -4.069902 -50.932693 0.000003 0.000008 -0.000001 0.000001 0.000002 0.000001 -1.795418 11.719163 -58.472853 -1.905357 -3.931833 -61.649103 0.000015 0.000013 -0.000004 -0.000003 0.000001 -0.000000 2.096442 6.732510 7.083137 0.000000 0.000000 0.000000 6.919951 -24.109970 68.744263 -6.249781 62.398341 6.854575 7.748974 6.224227 -19.022084 3.203393 -9.588705 13.059587 9.959633 -18.211497 -0.063780 -0.000007 0.000003 0.000005 0.000004 0.000000 -0.000002 4.551089 -1.713736 49.999382 -2.710278 2.338755 62.635136 -0.000000 -0.000002 0.000000 0.000000 0.000001 -0.000002 -1.910129 -0.701790 44.634535 -4.673230 4.305015 85.504194 0.000011 -0.000001 0.000011 0.000004 -0.000000 0.000001 -4.683917 -0.862914 52.477180 -5.129168 5.729453 92.422493 -0.000011 0.000013 -0.000005 0.000005 -0.000003 0.000000 -31.771803 1.472314 20.056405 40.133570 -9.469497 1.136157 -5.180311 2.106382 -17.223135 -2.647485 -3.011293 0.592843 0.000001 0.000000 0.000000 -6.243876 -10.971633 -23.959605 43.498698 22.927145 -6.555458 -37.291539 -4.660400 8.976858 -1.245847 -1.155900 2.638078 0.000000 0.000002 0.000000 
